<svg xmlns="http://www.w3.org/2000/svg" width="44.733" height="11.929" viewBox="0 0 44.733 11.929"><path d="M5.964,22a5.964,5.964,0,1,0,5.964,5.964A5.971,5.971,0,0,0,5.964,22Zm0,10.438a4.473,4.473,0,1,1,4.473-4.473A4.478,4.478,0,0,1,5.964,32.438Z" transform="translate(0 -22)"/><path d="M49.964,22a5.964,5.964,0,1,0,5.964,5.964A5.971,5.971,0,0,0,49.964,22Zm0,10.438a4.473,4.473,0,1,1,4.473-4.473A4.478,4.478,0,0,1,49.964,32.438Z" transform="translate(-11.196 -22)"/><path d="M27.964,22a5.964,5.964,0,1,0,5.964,5.964A5.971,5.971,0,0,0,27.964,22Zm0,10.438a4.473,4.473,0,1,1,4.473-4.473A4.478,4.478,0,0,1,27.964,32.438Z" transform="translate(-5.598 -22)"/></svg>